<svg xmlns="http://www.w3.org/2000/svg" width="612" height="348" viewBox="0 0 612 348">
<path d="M 190 77 L 190 78 L 189 79 L 189 83 L 188 84 L 188 90 L 187 91 L 187 96 L 186 97 L 186 102 L 185 103 L 185 108 L 184 109 L 184 114 L 183 115 L 183 120 L 182 121 L 182 126 L 181 127 L 181 133 L 180 134 L 180 138 L 179 139 L 179 145 L 178 146 L 178 152 L 177 153 L 177 158 L 176 159 L 176 164 L 175 165 L 175 169 L 174 170 L 174 175 L 173 176 L 173 183 L 172 184 L 172 189 L 171 190 L 171 195 L 170 196 L 170 202 L 169 203 L 169 208 L 168 209 L 168 213 L 167 214 L 167 219 L 166 220 L 166 225 L 165 226 L 165 232 L 164 233 L 164 237 L 163 238 L 163 244 L 162 245 L 162 250 L 161 251 L 161 256 L 160 257 L 160 261 L 173 261 L 174 262 L 176 262 L 177 261 L 184 261 L 185 262 L 186 262 L 187 261 L 188 261 L 189 262 L 191 262 L 192 261 L 219 261 L 220 260 L 220 252 L 221 251 L 221 241 L 222 240 L 222 233 L 223 232 L 224 232 L 224 231 L 226 229 L 229 229 L 230 228 L 244 228 L 245 229 L 245 230 L 246 231 L 246 241 L 247 242 L 247 251 L 248 252 L 248 261 L 260 261 L 261 262 L 263 262 L 264 261 L 265 262 L 266 262 L 267 261 L 270 261 L 271 262 L 273 262 L 274 261 L 275 262 L 276 261 L 277 262 L 278 261 L 279 261 L 280 262 L 281 262 L 282 261 L 283 261 L 284 262 L 285 261 L 286 261 L 287 262 L 288 261 L 290 261 L 291 262 L 292 261 L 293 262 L 294 262 L 295 261 L 296 262 L 297 261 L 300 261 L 301 262 L 303 262 L 304 261 L 307 261 L 307 258 L 306 257 L 306 252 L 305 251 L 305 248 L 304 247 L 304 242 L 303 241 L 303 236 L 302 235 L 302 231 L 301 230 L 301 225 L 300 224 L 300 220 L 299 219 L 299 215 L 298 214 L 298 210 L 297 209 L 297 205 L 296 204 L 296 198 L 295 197 L 295 193 L 294 192 L 294 188 L 293 187 L 294 186 L 293 185 L 293 181 L 292 180 L 292 176 L 291 175 L 291 171 L 290 170 L 290 166 L 289 165 L 289 160 L 288 159 L 288 155 L 287 154 L 287 149 L 286 148 L 286 144 L 285 143 L 285 138 L 284 137 L 284 132 L 283 131 L 283 126 L 282 125 L 282 122 L 281 121 L 281 116 L 280 115 L 280 110 L 279 109 L 279 104 L 278 103 L 278 99 L 277 98 L 277 93 L 276 92 L 276 89 L 275 88 L 275 84 L 274 83 L 274 79 L 273 78 L 273 77 Z" fill="black"/><path d="M 448 76 L 448 262 L 506 262 L 506 189 L 507 188 L 507 187 L 510 184 L 511 184 L 512 183 L 524 183 L 525 184 L 525 189 L 526 190 L 525 191 L 525 202 L 526 203 L 525 204 L 525 208 L 526 209 L 525 210 L 525 212 L 526 213 L 525 214 L 525 223 L 526 224 L 525 225 L 525 226 L 526 227 L 526 246 L 525 247 L 525 260 L 526 261 L 525 262 L 583 262 L 584 261 L 584 238 L 583 237 L 583 236 L 584 235 L 584 154 L 583 153 L 583 112 L 584 111 L 584 86 L 583 85 L 583 76 L 526 76 L 526 81 L 525 82 L 526 83 L 526 87 L 525 88 L 525 95 L 526 96 L 525 97 L 525 98 L 526 99 L 525 100 L 525 105 L 526 106 L 525 107 L 525 109 L 526 110 L 525 111 L 525 112 L 526 113 L 526 114 L 525 115 L 526 116 L 526 117 L 525 118 L 526 119 L 526 120 L 525 121 L 525 128 L 526 129 L 525 130 L 525 131 L 526 132 L 526 135 L 525 136 L 526 137 L 526 139 L 525 140 L 526 141 L 526 142 L 525 143 L 507 143 L 506 142 L 506 76 Z" fill="black"/><path d="M 88 73 L 87 74 L 71 74 L 70 75 L 66 75 L 65 76 L 61 76 L 60 77 L 58 77 L 57 78 L 54 78 L 53 79 L 51 79 L 50 80 L 49 80 L 48 81 L 47 81 L 46 82 L 45 82 L 44 83 L 43 83 L 42 84 L 41 84 L 39 86 L 38 86 L 36 88 L 35 88 L 29 94 L 29 95 L 26 98 L 26 99 L 24 101 L 24 102 L 23 103 L 23 105 L 22 106 L 22 108 L 21 109 L 21 112 L 20 113 L 20 122 L 19 123 L 19 207 L 20 208 L 20 218 L 21 219 L 21 224 L 22 225 L 22 228 L 23 229 L 23 232 L 24 233 L 24 235 L 25 236 L 25 237 L 26 238 L 26 239 L 28 241 L 28 242 L 36 250 L 37 250 L 39 252 L 40 252 L 41 253 L 42 253 L 44 255 L 46 255 L 47 256 L 48 256 L 49 257 L 51 257 L 52 258 L 53 258 L 54 259 L 57 259 L 58 260 L 60 260 L 61 261 L 66 261 L 67 262 L 73 262 L 74 263 L 101 263 L 102 262 L 108 262 L 109 261 L 113 261 L 114 260 L 117 260 L 118 259 L 120 259 L 121 258 L 123 258 L 124 257 L 125 257 L 126 256 L 127 256 L 128 255 L 130 255 L 131 254 L 132 254 L 134 252 L 135 252 L 136 251 L 137 251 L 139 249 L 140 249 L 140 248 L 141 247 L 142 247 L 148 241 L 148 240 L 149 239 L 149 238 L 150 237 L 150 236 L 151 235 L 151 232 L 152 231 L 152 229 L 153 228 L 153 224 L 154 223 L 154 216 L 155 215 L 155 188 L 154 188 L 153 187 L 152 188 L 151 187 L 133 187 L 132 188 L 131 188 L 130 187 L 112 187 L 111 188 L 104 188 L 103 187 L 101 187 L 100 188 L 99 188 L 99 217 L 98 218 L 98 226 L 97 227 L 97 229 L 93 233 L 90 233 L 89 234 L 86 234 L 85 233 L 82 233 L 81 232 L 80 232 L 79 231 L 79 230 L 78 229 L 78 228 L 77 227 L 77 224 L 76 223 L 76 116 L 77 115 L 77 112 L 78 111 L 78 110 L 79 109 L 79 108 L 80 107 L 81 107 L 84 104 L 85 104 L 86 103 L 92 103 L 93 104 L 94 104 L 97 107 L 97 109 L 98 110 L 98 118 L 99 119 L 99 155 L 100 156 L 155 156 L 155 154 L 156 153 L 156 151 L 155 150 L 155 148 L 156 147 L 156 146 L 155 145 L 155 121 L 154 120 L 154 114 L 153 113 L 153 109 L 152 108 L 152 106 L 151 105 L 151 103 L 150 102 L 150 101 L 149 100 L 149 99 L 148 98 L 148 97 L 143 92 L 143 91 L 142 91 L 138 87 L 137 87 L 135 85 L 134 85 L 132 83 L 131 83 L 130 82 L 129 82 L 128 81 L 126 81 L 125 80 L 124 80 L 123 79 L 121 79 L 120 78 L 118 78 L 117 77 L 114 77 L 113 76 L 110 76 L 109 75 L 104 75 L 103 74 L 89 74 Z" fill="black"/><path d="M 354 71 L 354 72 L 353 73 L 352 72 L 349 72 L 348 73 L 343 73 L 344 73 L 345 74 L 344 75 L 342 75 L 341 74 L 340 74 L 338 76 L 337 75 L 336 76 L 334 76 L 333 77 L 331 77 L 330 78 L 329 78 L 328 79 L 327 79 L 326 80 L 325 80 L 323 82 L 322 82 L 322 83 L 323 84 L 322 85 L 321 85 L 320 84 L 316 88 L 315 88 L 315 89 L 314 90 L 315 90 L 316 91 L 315 92 L 313 92 L 313 93 L 312 94 L 311 94 L 311 95 L 310 96 L 310 98 L 309 99 L 309 101 L 308 102 L 308 105 L 307 106 L 307 111 L 306 112 L 306 129 L 307 130 L 307 135 L 308 136 L 308 139 L 309 140 L 309 143 L 310 144 L 310 145 L 311 146 L 311 147 L 312 148 L 312 149 L 313 150 L 313 151 L 315 153 L 315 154 L 322 161 L 323 161 L 325 163 L 326 163 L 328 165 L 329 165 L 330 166 L 330 167 L 331 167 L 332 168 L 333 168 L 334 169 L 335 169 L 337 171 L 338 171 L 339 172 L 340 172 L 341 173 L 342 173 L 344 175 L 345 175 L 346 176 L 347 176 L 348 177 L 349 177 L 350 178 L 351 178 L 352 179 L 353 179 L 354 180 L 355 180 L 356 181 L 357 181 L 359 183 L 360 183 L 361 184 L 362 184 L 364 186 L 365 186 L 366 187 L 367 187 L 369 189 L 370 189 L 372 191 L 373 191 L 374 192 L 375 192 L 377 194 L 378 194 L 382 198 L 382 199 L 383 200 L 383 202 L 384 203 L 384 205 L 385 206 L 385 215 L 386 216 L 386 217 L 385 218 L 385 226 L 384 227 L 384 228 L 383 229 L 383 230 L 381 232 L 380 232 L 379 233 L 378 233 L 377 234 L 368 234 L 367 233 L 366 233 L 363 230 L 363 227 L 362 226 L 362 203 L 361 202 L 361 195 L 308 195 L 308 219 L 309 220 L 309 227 L 310 228 L 310 231 L 311 232 L 311 234 L 312 235 L 312 237 L 313 238 L 313 239 L 314 240 L 314 241 L 317 244 L 317 245 L 322 250 L 323 250 L 326 253 L 327 253 L 328 254 L 329 254 L 330 255 L 331 255 L 332 256 L 333 256 L 334 257 L 335 257 L 336 258 L 337 258 L 338 259 L 341 259 L 342 260 L 344 260 L 345 261 L 348 261 L 349 262 L 352 262 L 353 263 L 359 263 L 360 264 L 371 264 L 372 265 L 379 265 L 380 264 L 391 264 L 392 263 L 398 263 L 399 262 L 403 262 L 404 261 L 407 261 L 408 260 L 410 260 L 411 259 L 413 259 L 414 258 L 415 258 L 416 257 L 418 257 L 419 256 L 420 256 L 421 255 L 422 255 L 423 254 L 424 254 L 425 253 L 426 253 L 428 251 L 429 251 L 431 249 L 431 248 L 432 247 L 433 247 L 433 246 L 436 243 L 436 241 L 438 239 L 438 235 L 439 234 L 439 230 L 440 229 L 440 221 L 441 220 L 441 208 L 440 207 L 440 198 L 439 197 L 439 192 L 438 191 L 438 189 L 437 188 L 437 186 L 436 185 L 436 183 L 435 182 L 435 180 L 433 178 L 433 177 L 431 175 L 431 174 L 425 168 L 424 168 L 421 165 L 420 165 L 417 162 L 416 162 L 415 161 L 414 161 L 412 159 L 410 159 L 408 157 L 407 157 L 405 155 L 404 155 L 403 154 L 402 154 L 400 152 L 399 152 L 398 151 L 397 151 L 396 150 L 395 150 L 394 149 L 393 149 L 391 147 L 389 147 L 388 146 L 387 146 L 386 145 L 385 145 L 384 144 L 383 144 L 382 143 L 381 143 L 380 142 L 379 142 L 378 141 L 377 141 L 376 140 L 375 140 L 374 139 L 373 139 L 371 137 L 370 137 L 368 135 L 367 135 L 363 131 L 363 130 L 362 129 L 362 128 L 361 127 L 361 124 L 360 123 L 360 117 L 361 116 L 361 111 L 362 110 L 362 109 L 363 108 L 363 106 L 364 105 L 365 105 L 365 104 L 366 103 L 367 104 L 367 103 L 368 102 L 370 102 L 371 101 L 377 101 L 381 105 L 381 109 L 382 110 L 382 129 L 387 129 L 388 130 L 435 130 L 436 129 L 436 124 L 435 123 L 436 122 L 436 117 L 435 116 L 436 115 L 435 114 L 435 107 L 434 106 L 435 105 L 434 104 L 434 101 L 433 100 L 433 97 L 432 96 L 432 94 L 431 93 L 431 92 L 429 90 L 429 89 L 425 85 L 424 85 L 421 82 L 420 82 L 419 81 L 418 81 L 417 80 L 416 80 L 415 79 L 414 79 L 413 78 L 412 78 L 411 77 L 410 77 L 409 76 L 406 76 L 405 75 L 403 75 L 402 74 L 399 74 L 398 73 L 394 73 L 393 72 L 387 72 L 386 71 Z" fill="black"/>
</svg>